<?xml version="1.0" encoding="utf-8"?>
<!-- Generator: Adobe Illustrator 24.0.0, SVG Export Plug-In . SVG Version: 6.00 Build 0)  -->
<svg version="1.1" id="Layer_1" xmlns="http://www.w3.org/2000/svg" xmlns:xlink="http://www.w3.org/1999/xlink" x="0px" y="0px"
	 viewBox="0 0 35 8.1" style="enable-background:new 0 0 35 8.1;" xml:space="preserve">
<style type="text/css">
	.st0{fill:#E31B4A;}
	.st1{fill:#383838;}
	.st2{enable-background:new    ;}
	.st3{fill:#FFFFFF;}
</style>
<g>
	<g>
		<polygon class="st0" points="3.8,1.1 3.8,4.1 3,4.1 3,3 1.8,3 1.8,4.1 1,4.1 1,1.1 1.8,1.1 1.8,2.3 3,2.3 3,1.1 		"/>
		<polygon class="st0" points="12.5,4.1 11.8,4.1 11.8,2.6 11.1,3.7 11.1,3.7 10.7,3.7 10.7,3.7 10,2.6 10,4.1 9.2,4.1 9.2,1.1 
			9.8,1.1 10.9,2.7 12,1.1 12.5,1.1 		"/>
		<polygon class="st0" points="13.9,1.8 13.9,2.3 15.3,2.3 15.3,3 13.9,3 13.9,3.5 15.5,3.5 15.5,4.1 13.2,4.1 13.2,1.1 15.5,1.1 
			15.5,1.8 		"/>
		<path class="st0" d="M6.5,1C5.3,1,4.3,1.9,4.3,3c0,0.4,0.1,0.8,0.3,1.1h1.1C5.4,3.9,5.2,3.5,5.2,3.1c0-0.7,0.6-1.3,1.3-1.3
			s1.3,0.6,1.3,1.3c0,0.4-0.2,0.8-0.5,1.1h1.1C8.6,3.8,8.7,3.5,8.7,3C8.7,1.9,7.7,1,6.5,1"/>
		<path class="st0" d="M5.8,3.4c0.1,0.3,0.4,0.5,0.7,0.5c0.3,0,0.6-0.2,0.7-0.5H5.8z"/>
		<g>
			<path class="st1" d="M2.9,5.6c0,0.5-0.4,0.8-1,0.8H1.6V7H1.1V4.8H2C2.5,4.8,2.9,5.1,2.9,5.6L2.9,5.6z M2.3,5.6
				c0-0.2-0.2-0.3-0.4-0.3H1.6V6h0.3C2.2,6,2.3,5.9,2.3,5.6z"/>
			<path class="st1" d="M4.8,5.5V7H4.2V7C4.1,7,4,7.1,3.8,7.1C3.4,7.1,3,6.7,3,6.3s0.4-0.8,0.8-0.8c0.2,0,0.3,0,0.4,0.1V5.5H4.8z
				 M4.2,6.5V6C4.1,5.9,4,5.9,3.9,5.9C3.7,5.9,3.5,6,3.5,6.3s0.2,0.4,0.4,0.4C4,6.6,4.1,6.6,4.2,6.5L4.2,6.5z"/>
			<path class="st1" d="M6.9,5.5l-1,2.3H5.4L5.7,7L5,5.5h0.6l0.4,1l0.4-1L6.9,5.5L6.9,5.5z"/>
			<path class="st1" d="M8.8,6.6V7H7.2V4.8h0.5v1.7H8.8z"/>
			<path class="st1" d="M10.7,5.5V7h-0.5V7C10.1,7,9.9,7.1,9.8,7.1C9.3,7.1,9,6.7,9,6.3s0.4-0.8,0.8-0.8c0.2,0,0.3,0,0.4,0.1V5.5
				H10.7z M10.2,6.5V6C10.1,5.9,10,5.9,9.9,5.9C9.6,5.9,9.5,6,9.5,6.3s0.2,0.4,0.4,0.4C10,6.6,10.1,6.6,10.2,6.5L10.2,6.5z"/>
			<path class="st1" d="M12.3,7c-0.2,0.1-0.3,0.1-0.4,0.1c-0.4,0-0.7-0.3-0.7-0.7V5.9h-0.3V5.5h0.3V4.9h0.5v0.5h0.5v0.5h-0.5v0.4
				c0,0.2,0.1,0.2,0.2,0.2c0.1,0,0.2,0,0.3-0.1L12.3,7L12.3,7z"/>
			<path class="st1" d="M14.1,6.4H13c0,0.2,0.1,0.3,0.4,0.3c0.1,0,0.2,0,0.2-0.1h0.5c-0.1,0.3-0.4,0.5-0.8,0.5
				c-0.5,0-0.9-0.4-0.9-0.8s0.3-0.8,0.8-0.8C13.8,5.4,14.2,5.8,14.1,6.4L14.1,6.4z M13,6.1h0.7c0-0.2-0.1-0.3-0.3-0.3S13,5.9,13,6.1
				L13,6.1z"/>
			<path class="st1" d="M15.5,5.9C15.2,6,15,6,14.9,6.1V7h-0.5V5.5h0.5v0.2c0.1-0.1,0.3-0.2,0.5-0.2V5.9L15.5,5.9z"/>
		</g>
	</g>
	<path class="st0" d="M16.7,1.1h15.5c1,0,1.8,0.8,1.8,1.8v2.3c0,1-0.8,1.8-1.8,1.8H16.7L16.7,1.1L16.7,1.1L16.7,1.1z"/>
	<g class="st2">
		<path class="st3" d="M18.1,4.7V4.1h1.2v0.6H18.1z"/>
	</g>
	<g class="st2">
		<path class="st3" d="M20.4,4.7L21,4.7c0,0.1,0.1,0.2,0.2,0.3c0.1,0.1,0.2,0.1,0.3,0.1c0.1,0,0.2-0.1,0.3-0.2
			c0.1-0.1,0.1-0.3,0.1-0.5c0-0.2,0-0.3-0.1-0.4c-0.1-0.1-0.2-0.1-0.3-0.1c-0.2,0-0.3,0.1-0.5,0.2l-0.5-0.1l0.3-1.6h1.6V3h-1.1
			l-0.1,0.5c0.1-0.1,0.3-0.1,0.4-0.1c0.3,0,0.5,0.1,0.7,0.3c0.2,0.2,0.3,0.4,0.3,0.7c0,0.3-0.1,0.5-0.2,0.7
			c-0.2,0.3-0.5,0.4-0.8,0.4c-0.3,0-0.5-0.1-0.7-0.2C20.6,5.2,20.5,5,20.4,4.7z"/>
		<path class="st3" d="M23.9,2.4c0.3,0,0.5,0.1,0.7,0.3C24.8,3,24.9,3.4,24.9,4c0,0.6-0.1,1-0.3,1.3c-0.2,0.2-0.4,0.3-0.7,0.3
			c-0.3,0-0.5-0.1-0.7-0.3C22.9,5,22.9,4.6,22.9,4c0-0.6,0.1-1,0.3-1.3C23.3,2.5,23.6,2.4,23.9,2.4z M23.9,2.9c-0.1,0-0.1,0-0.2,0.1
			c-0.1,0-0.1,0.1-0.1,0.2c0,0.2-0.1,0.4-0.1,0.8c0,0.4,0,0.6,0.1,0.8c0,0.1,0.1,0.2,0.1,0.3c0.1,0,0.1,0.1,0.2,0.1s0.1,0,0.2-0.1
			c0.1,0,0.1-0.1,0.1-0.2c0-0.2,0.1-0.4,0.1-0.8c0-0.4,0-0.6-0.1-0.8c0-0.1-0.1-0.2-0.1-0.3C24,2.9,23.9,2.9,23.9,2.9z"/>
		<path class="st3" d="M26.3,2.4c0.3,0,0.5,0.1,0.7,0.3C27.2,3,27.3,3.4,27.3,4c0,0.6-0.1,1-0.3,1.3c-0.2,0.2-0.4,0.3-0.7,0.3
			c-0.3,0-0.5-0.1-0.7-0.3C25.4,5,25.3,4.6,25.3,4c0-0.6,0.1-1,0.3-1.3C25.7,2.5,26,2.4,26.3,2.4z M26.3,2.9c-0.1,0-0.1,0-0.2,0.1
			C26,3,26,3.1,26,3.2c0,0.2-0.1,0.4-0.1,0.8c0,0.4,0,0.6,0.1,0.8C26,4.9,26,5,26.1,5c0.1,0,0.1,0.1,0.2,0.1c0.1,0,0.1,0,0.2-0.1
			c0.1,0,0.1-0.1,0.1-0.2c0-0.2,0.1-0.4,0.1-0.8c0-0.4,0-0.6-0.1-0.8c0-0.1-0.1-0.2-0.1-0.3C26.4,2.9,26.4,2.9,26.3,2.9z"/>
		<path class="st3" d="M27.8,5.5V2.4h0.6v1.4l1.3-1.4h0.8l-1.2,1.2l1.2,1.9h-0.8L29,4.1l-0.5,0.5v0.9H27.8z"/>
	</g>
</g>
</svg>
